<?xml version="1.0" standalone="no"?><svg xmlns="http://www.w3.org/2000/svg" viewBox="0 0 1440 320"><path fill="#080922" fill-opacity="1" d="M0,160L26.7,154.7C53.3,149,107,139,160,144C213.3,149,267,171,320,170.7C373.3,171,427,149,480,122.7C533.3,96,587,64,640,80C693.3,96,747,160,800,154.7C853.3,149,907,75,960,64C1013.3,53,1067,107,1120,122.7C1173.3,139,1227,117,1280,101.3C1333.3,85,1387,75,1413,69.3L1440,64L1440,320L1413.3,320C1386.7,320,1333,320,1280,320C1226.7,320,1173,320,1120,320C1066.7,320,1013,320,960,320C906.7,320,853,320,800,320C746.7,320,693,320,640,320C586.7,320,533,320,480,320C426.7,320,373,320,320,320C266.7,320,213,320,160,320C106.7,320,53,320,27,320L0,320Z"></path></svg>